<?xml version="1.0" encoding="UTF-8"?>
<svg id="_Слой_1" data-name="Слой 1" xmlns="http://www.w3.org/2000/svg" version="1.1" viewBox="0 0 48 48">
  <defs>
    <style>
      .cls-1 {
        fill: #038eff;
        stroke-width: 0px;
      }
    </style>
  </defs>
  <g id="Warlock">
    <path class="cls-1" d="M24,30.9c-.3,0-.6-.2-.6-.5-.3-1.3-3-1.5-3.9-1.5-.2,0-.4-.1-.6-.3-1.4-2.3-7-4.4-9.1-5-.3,0-.5-.4-.5-.6,0-.3.2-.5.5-.6,3.1-.7,11.7-3,13.6-5,.2-.3.7-.3.9,0,1.9,2,10.5,4.3,13.6,5,.3,0,.5.3.5.6,0,.3-.2.6-.5.6-2,.6-7.6,2.7-9.1,5-.1.2-.3.3-.6.3-.9,0-3.6.2-3.9,1.5,0,.3-.3.5-.6.5ZM19.8,27.6c.9,0,3.1.2,4.2,1.4,1.1-1.2,3.3-1.3,4.2-1.4,1.5-2,5.1-3.7,7.5-4.6-3.3-.8-9.3-2.5-11.7-4.4-2.4,1.9-8.4,3.6-11.7,4.4,2.3.9,6,2.5,7.5,4.6Z"/>
    <path class="cls-1" d="M24,28.1c-2.9,0-4.6-1.8-4.6-4.6s.3-1.7.8-2.4c.2-.2.4-.3.7-.2.3,0,.5.1.7.2.6.2.9.2,1.8.3.2,0,.4.1.6.4.1.2,0,.5,0,.7l-.8,1.2,1,1.5,1-1.5-.8-1.2c-.1-.2-.1-.4,0-.7.1-.2.3-.3.6-.4.9,0,1.2-.1,1.8-.3.2,0,.4-.1.7-.2.3,0,.5,0,.7.2.5.7.8,1.5.8,2.4,0,2.9-1.8,4.6-4.6,4.6ZM21,22.3c-.2.4-.3.8-.3,1.3,0,1,.3,3.3,3.3,3.3s3.3-2.3,3.3-3.3-.1-.9-.3-1.3c0,0-.1,0-.2,0-.3,0-.6.2-.9.2l.4.6c.2.2.2.5,0,.7l-1.8,2.6c-.2.4-.8.4-1.1,0l-1.8-2.6c-.1-.2-.1-.5,0-.7l.4-.6c-.4,0-.6-.1-.9-.2,0,0-.1,0-.2,0Z"/>
    <path class="cls-1" d="M24.1,16.1h-.2c0,0-.1,0-.2,0l-2.6-.9c-.2,0-.3-.2-.4-.4,0-.2,0-.4,0-.5l1-2.1c.8-2.7,1.2-4.1,1.4-6.7l.3-4.5c0-.3.3-.6.6-.6s.6.3.6.6l.3,4.5c.1,2.6.5,4,1.4,6.8l1,2c0,.2,0,.4,0,.5,0,.2-.2.3-.4.4l-2.6.9c0,0-.1,0-.2,0ZM24,14.8h0l1.8-.6-.7-1.4c-.5-1.5-.8-2.7-1.1-3.9-.3,1.2-.6,2.4-1.1,3.8l-.7,1.5,1.8.6Z"/>
    <path class="cls-1" d="M24,47.5c-.3,0-.6-.3-.6-.6l-.3-4.5c-.1-2.6-.5-4-1.4-6.8l-1-2c0-.2,0-.4,0-.5,0-.2.2-.3.4-.4l2.6-.9c0,0,.1,0,.2,0h.2c0,0,.1,0,.2,0l2.6.9c.2,0,.3.2.4.4,0,.2,0,.4,0,.5l-1,2.1c-.8,2.7-1.2,4.1-1.4,6.7l-.3,4.5c0,.3-.3.6-.6.6ZM22.2,33.8l.7,1.4c.5,1.5.8,2.7,1.1,3.9.3-1.2.6-2.4,1.1-3.8l.7-1.5-1.8-.6-1.8.6Z"/>
    <g>
      <path class="cls-1" d="M6.8,36.8c-.1,0-.2,0-.3,0-.2-.1-.4-.4-.3-.7l1.2-5c0-.2.2-.3.3-.4l4.7-2.5c.3-.2.7,0,.8.2l1,1.5c.2.3.1.6-.1.9l-6.8,6.1c-.1.1-.3.2-.4.2ZM8.5,31.6l-.6,2.7,4.9-4.4-.3-.5-3.9,2.1Z"/>
      <path class="cls-1" d="M41.2,36.8c-.2,0-.3,0-.4-.2l-6.8-6.1c-.2-.2-.3-.6-.1-.9l1-1.5c.2-.3.6-.4.8-.2l4.7,2.5c.2,0,.3.2.3.4l1.2,5c0,.3,0,.6-.3.7-.1,0-.2,0-.3,0ZM35.2,30l4.9,4.4-.6-2.7-3.9-2.1-.3.5Z"/>
    </g>
    <g>
      <path class="cls-1" d="M14,41.7c0,0-.1,0-.2,0-.3,0-.5-.4-.5-.7l1.1-9.8c0-.2.1-.4.3-.5.2-.1.4-.1.6,0l3.2,1.4c.2,0,.3.2.4.4,0,.2,0,.4,0,.5l-4.3,8.5c-.1.2-.3.4-.6.4ZM15.6,32.2l-.6,5.4,2.3-4.6-1.7-.7Z"/>
      <path class="cls-1" d="M34,41.7c-.2,0-.5-.1-.6-.4l-4.3-8.5c0-.2,0-.3,0-.5,0-.2.2-.3.4-.4l3.2-1.4c.2,0,.4,0,.6,0,.2.1.3.3.3.5l1.1,9.8c0,.3-.2.6-.5.7,0,0-.1,0-.2,0ZM30.6,32.9l2.3,4.6-.6-5.4-1.7.7Z"/>
    </g>
    <g>
      <path class="cls-1" d="M17.5,17.5s0,0,0,0l-4.7-.7c-.2,0-.4-.2-.5-.4l-1.8-4.5c-.1-.3,0-.6.2-.8.2-.2.6-.2.8,0l6.5,5.2c.2.2.3.5.2.8-.1.2-.3.4-.6.4ZM13.3,15.6l1.9.3-2.7-2.1.7,1.8Z"/>
      <path class="cls-1" d="M30.5,17.5c-.3,0-.5-.2-.6-.4-.1-.3,0-.6.2-.8l6.5-5.2c.2-.2.6-.2.8,0s.3.5.2.8l-1.8,4.5c0,.2-.3.4-.5.4l-4.7.7s0,0,0,0ZM35.4,13.8l-2.7,2.1,1.9-.3.7-1.8Z"/>
    </g>
  </g>
</svg>